<svg width="24" height="24" viewBox="0 0 24 24" fill="none" xmlns="http://www.w3.org/2000/svg">
<path d="M21 0H3C1.3455 0 0 1.3455 0 3V21C0 22.6545 1.3455 24 3 24H21C22.6545 24 24 22.6545 24 21V3C24 1.3455 22.6545 0 21 0Z" fill="#1976D2"/>
<path fill-rule="evenodd" clip-rule="evenodd" d="M20 12.3077H16.3333V9.38462C16.3333 8.57785 16.9904 8.65385 17.8 8.65385H19.2667V5H16.3333C15.1664 5 14.0472 5.46195 13.2221 6.28422C12.3969 7.1065 11.9333 8.22174 11.9333 9.38462V12.3077H9V15.9615H11.9333V24H16.3333V15.9615H18.5333L20 12.3077Z" fill="#FAFAFA"/>
</svg>
